<svg width="13" height="9" viewBox="0 0 13 9" fill="none" xmlns="http://www.w3.org/2000/svg">
<path d="M2.25 0.563104V8.4369C2.25 8.74866 2.50134 9 2.8131 9C3.12487 9 3.37621 8.74866 3.37621 8.4369V0.563104C3.37621 0.251343 3.12487 0 2.8131 0C2.50134 0 2.25 0.251343 2.25 0.563104Z" fill="#58B57E"/>
<path d="M9 0.563104V8.4369C9 8.74866 9.25134 9 9.5631 9C9.87487 9 10.1262 8.74866 10.1262 8.4369V0.563104C10.1262 0.251343 9.87487 0 9.5631 0C9.25134 0 9 0.251343 9 0.563104Z" fill="#58B57E"/>
<path d="M0.563104 6.74925H11.8131C12.1249 6.74925 12.3762 6.49791 12.3762 6.18615C12.3762 5.87439 12.1249 5.62305 11.8131 5.62305H0.563104C0.251343 5.62305 0 5.87681 0 6.18615C0 6.49791 0.251343 6.74925 0.563104 6.74925Z" fill="#58B57E"/>
<path d="M1.31465 2.77975C2.04692 2.51633 2.70186 2.07889 3.2263 1.50371L2.81062 1.12427L2.29101 1.34178C2.96771 2.96101 4.53376 3.9398 6.18683 3.9398C6.72818 3.9398 7.2792 3.83587 7.80847 3.61353C8.83559 3.18577 9.65245 2.3689 10.0802 1.34178L9.56062 1.12669L9.14494 1.50612C9.66937 2.08131 10.3267 2.51874 11.0566 2.78217C11.349 2.88609 11.6704 2.73625 11.7768 2.44382C11.8807 2.1514 11.7309 1.82997 11.4384 1.72363C10.8777 1.52304 10.3775 1.18711 9.9763 0.749677C9.84821 0.607089 9.65245 0.541836 9.46395 0.575671C9.27544 0.609505 9.11593 0.737594 9.04101 0.914017C8.72684 1.66804 8.12748 2.26498 7.37587 2.57916C6.98677 2.74108 6.58317 2.81842 6.18683 2.81842C4.97603 2.81842 3.82324 2.10306 3.33022 0.914017C3.2553 0.737594 3.09579 0.609505 2.90729 0.575671C2.71878 0.541836 2.52544 0.609505 2.39494 0.749677C1.99375 1.18953 1.49349 1.52304 0.932798 1.72363C0.640371 1.82755 0.488115 2.1514 0.594452 2.44382C0.700789 2.73383 1.02222 2.88609 1.31465 2.77975Z" fill="#58B57E"/>
<path d="M5.62372 3.37658V6.18969C5.62372 6.50145 5.87506 6.75279 6.18682 6.75279C6.49858 6.75279 6.74993 6.50145 6.74993 6.18969V3.37658C6.74993 3.06482 6.49858 2.81348 6.18682 2.81348C5.87506 2.81348 5.62372 3.06482 5.62372 3.37658Z" fill="#58B57E"/>
</svg>
