<svg id="candlestick_chart" width="24" height="24" viewBox="0 0 24 24" fill="none" xmlns="http://www.w3.org/2000/svg">
    <path fill-rule="evenodd" clip-rule="evenodd"
          d="M5 1C5 0.447716 5.44771 0 6 0C6.55229 0 7 0.447716 7 1V2C8.65686 2 10 3.34315 10 5V19C10 20.6569 8.65686 22 7 22V23C7 23.5523 6.55229 24 6 24C5.44771 24 5 23.5523 5 23V22C3.34314 22 2 20.6569 2 19V5C2 3.34315 3.34314 2 5 2V1ZM7 20C7.55229 20 8 19.5523 8 19V5C8 4.44772 7.55229 4 7 4H5C4.44771 4 4 4.44772 4 5V19C4 19.5523 4.44771 20 5 20H7Z"
          fill="currentColor"/>
    <path fill-rule="evenodd" clip-rule="evenodd"
          d="M19 6V5C19 4.44772 18.5523 4 18 4C17.4477 4 17 4.44772 17 5V6C15.3431 6 14 7.34315 14 9V15C14 16.6569 15.3431 18 17 18V19C17 19.5523 17.4477 20 18 20C18.5523 20 19 19.5523 19 19V18C20.6569 18 22 16.6569 22 15V9C22 7.34315 20.6569 6 19 6ZM19 8C19.5523 8 20 8.44772 20 9V15C20 15.5523 19.5523 16 19 16H17C16.4477 16 16 15.5523 16 15V9C16 8.44772 16.4477 8 17 8H19Z"
          fill="currentColor"/>
</svg>
