<svg width="62" height="62" viewBox="0 0 62 62" fill="none" xmlns="http://www.w3.org/2000/svg">
<path d="M54.52 20.4844C50.7773 20.4844 48.6866 24.2146 49.5384 26.9864L40.3753 36.2083C39.601 35.9752 38.4653 35.9752 37.691 36.2083L31.1091 29.6027C31.9866 26.8309 29.8959 23.0748 26.1275 23.0748C22.3848 23.0748 20.2683 26.805 21.1459 29.6027L9.37587 41.3892C6.61406 40.5343 2.89722 42.6326 2.89722 46.3887C2.89722 49.2382 5.22024 51.5696 8.05949 51.5696C11.8021 51.5696 13.8929 47.8394 13.0411 45.0676L24.7853 33.2552C25.5596 33.4884 26.6953 33.4884 27.4697 33.2552L34.0516 39.8608C33.174 42.6326 35.2647 46.3887 39.0332 46.3887C42.7758 46.3887 44.8923 42.6585 44.0148 39.8608L53.2036 30.6648C55.9654 31.5196 59.6823 29.4214 59.6823 25.6652C59.6823 22.8158 57.3592 20.4844 54.52 20.4844Z" fill="#A3A5A6"/>
<path d="M39.0332 23.0748L41.4595 17.7126L46.7766 15.3035L41.4595 12.8944L39.0332 7.53223L36.6586 12.8944L31.2898 15.3035L36.6586 17.7126L39.0332 23.0748Z" fill="#A3A5A6"/>
<path d="M9.35006 28.2569L10.6406 23.076L15.8029 21.7808L10.6406 20.4856L9.35006 15.3047L8.05949 20.4856L2.89722 21.7808L8.05949 23.076L9.35006 28.2569Z" fill="#A3A5A6"/>
</svg>
