<svg id="line_chart" width="24" height="24" viewBox="0 0 24 24" fill="none" xmlns="http://www.w3.org/2000/svg">
    <path d="M0 21V13H1L6 8L9 11L16 4L19 7L23 3H24V21H0Z" fill="url(#paint0_linear)"/>
    <path fill-rule="evenodd" clip-rule="evenodd"
          d="M23.7071 2.29289C23.3166 1.90237 22.6834 1.90237 22.2929 2.29289L19 5.58579L16.7071 3.29289C16.3166 2.90237 15.6834 2.90237 15.2929 3.29289L9 9.58579L6.70711 7.29289C6.31658 6.90237 5.68342 6.90237 5.29289 7.29289L0.292893 12.2929C-0.0976311 12.6834 -0.0976311 13.3166 0.292893 13.7071C0.683418 14.0976 1.31658 14.0976 1.70711 13.7071L6 9.41421L8.29289 11.7071C8.68342 12.0976 9.31658 12.0976 9.70711 11.7071L16 5.41421L18.2929 7.70711C18.6834 8.09763 19.3166 8.09763 19.7071 7.70711L23.7071 3.70711C24.0976 3.31658 24.0976 2.68342 23.7071 2.29289ZM1 20C0.447715 20 1.49012e-08 20.4477 1.49012e-08 21C1.49012e-08 21.5523 0.447716 22 1 22H23C23.5523 22 24 21.5523 24 21C24 20.4477 23.5523 20 23 20H1Z"
          fill="currentColor"/>
    <defs>
        <linearGradient id="paint0_linear" x1="12" y1="3" x2="12" y2="21" gradientUnits="userSpaceOnUse">
            <stop stop-color="currentColor" stop-opacity="0.2"/>
            <stop offset="1" stop-color="currentColor" stop-opacity="0"/>
        </linearGradient>
    </defs>
</svg>
