<?xml version="1.0" encoding="UTF-8"?>
<svg width="660px" height="660px" viewBox="0 0 660 660" version="1.1" xmlns="http://www.w3.org/2000/svg" xmlns:xlink="http://www.w3.org/1999/xlink">
    <title>Group 4 Copy</title>
    <g id="Artboards" stroke="none" stroke-width="1" fill="none" fill-rule="evenodd">
        <g id="Group-4-Copy">
            <path d="M0,330 C0,512.256992 147.75165,660 330,660 C512.256992,660 660,512.256992 660,330 C660,147.743008 512.256992,0 330,0 C147.75165,0 0,147.743008 0,330" id="Fill-15" fill="#D32D79"></path>
            <path d="M542.075803,232.943841 C549.728124,249.730294 534.163493,267.712684 516.475625,262.478292 C501.283645,257.99786 486.056999,253.638756 470.743691,249.600301 C435.411287,240.284123 399.636903,232.458533 363.957848,224.268963 C357.934787,222.891035 355.620891,220.464496 357.440809,214.294153 C360.621332,203.582715 363.472536,192.767282 366.497066,182.012513 C369.616926,170.824433 363.992513,164.966074 352.509698,167.704597 C344.580056,169.602497 336.728411,171.855712 328.798769,173.822942 C297.617511,181.544537 266.436253,189.075476 235.367656,197.013726 C224.404818,199.778248 222.680229,205.523946 230.003232,213.886841 C237.152909,222.076411 244.891892,229.754675 252.388221,237.623596 C273.906582,260.129748 295.277617,282.739896 316.969304,305.064058 C325.054938,313.340291 330.324034,312.300345 334.10253,301.458914 C337.94169,290.383495 340.96622,278.935429 343.626766,267.478696 C345.412019,259.722437 349.164516,258.422505 356.028206,261.221691 C422.195217,288.069616 487.417605,316.867439 548.454181,354.218813 C548.506179,354.244812 548.54951,354.27081 548.592841,354.305475 C556.279828,358.967897 560.179651,367.99809 558.394399,376.811628 C557.432442,381.560712 556.323159,386.292464 555.057883,390.989551 C550.794075,406.805388 544.849011,422.26591 537.205356,437.059134 C526.476507,457.884042 512.367811,477.443682 494.922599,494.897433 C477.754708,512.056533 458.515577,525.983136 438.037168,536.694574 C350.117806,582.582167 238.860165,568.646898 165.101496,494.897433 C144.883076,474.679161 129.162453,451.635703 117.939627,427.032327 C110.278639,410.25454 125.84327,392.263484 143.539804,397.48921 C158.731784,401.978308 173.95843,406.337412 189.280404,410.384533 C224.612808,419.700711 260.378526,427.508968 296.057581,435.698539 C302.089309,437.093799 304.394538,439.511672 302.583287,445.656016 C299.41143,456.384787 296.551559,467.20022 293.492364,477.937656 C290.381171,489.151735 296.031583,495.010094 307.479732,492.271571 C315.41804,490.365004 323.287018,488.111789 331.21666,486.153225 C362.371919,478.422964 393.553178,470.892026 424.647773,462.962442 C435.584613,460.19792 437.343866,454.460888 430.012198,446.089327 C422.86252,437.89109 415.132203,430.230159 407.635875,422.326574 C386.108847,399.855086 364.711814,377.201607 343.046126,354.903444 C334.977823,346.601212 329.691396,347.667157 325.9129,358.508588 C322.082406,369.592673 319.04921,381.040739 316.397329,392.488805 C314.60341,400.253731 310.859579,401.553663 303.995889,398.754477 C237.820212,371.897886 172.606491,343.108729 111.569914,305.757355 L111.43992,305.688025 C103.718269,300.999605 99.8531103,291.917414 101.655696,283.060546 C104.038921,271.369826 107.314773,259.835097 111.50925,248.534357 C120.080197,225.395571 132.446971,203.357393 148.635574,183.399107 C153.74001,177.081438 159.217096,170.971759 165.101496,165.078735 C256.01939,74.1615037 403.970041,74.1615037 494.922599,165.078735 C515.141019,185.297007 530.852976,208.340465 542.075803,232.943841 M527.542459,132.450446 C418.624712,23.542159 241.399384,23.542159 132.481637,132.450446 C118.806254,146.09973 106.864127,160.840957 96.6292559,176.388141 C88.4656246,188.763492 81.393944,201.684814 75.4228804,214.952785 C29.0669742,317.786057 48.0807821,443.142815 132.481637,527.517056 C241.399384,636.468674 418.624712,636.468674 527.542459,527.517056 C636.460206,418.600102 636.460206,241.376066 527.542459,132.450446" id="Fill-16" fill="#FFFFFF"></path>
        </g>
    </g>
</svg>