<?xml version="1.0" encoding="UTF-8"?> <svg xmlns="http://www.w3.org/2000/svg" xmlns:xlink="http://www.w3.org/1999/xlink" width="344px" height="77px" viewBox="0 0 344 77"> <title>Group 17</title> <defs> <polygon id="path-1" points="0 76.3765 343.744 76.3765 343.744 0.0005 0 0.0005"></polygon> </defs> <g id="Matcha-Clone" stroke="none" stroke-width="1" fill="none" fill-rule="evenodd"> <g id="Bitmodern_App_Epxloration_03-Copy-9" transform="translate(-634.000000, -1606.000000)"> <g id="Group-17" transform="translate(634.000000, 1606.000000)"> <path d="M110.9853,39.6939 C110.9853,36.2429 108.6853,34.0809 105.5103,34.0809 C102.3363,34.0809 100.0363,36.2429 100.0363,39.6939 C100.0363,43.1439 102.3363,45.3059 105.5103,45.3059 C108.6853,45.3059 110.9853,43.1439 110.9853,39.6939 M117.8863,39.6939 C117.8863,46.5479 112.9173,51.8399 106.8903,51.8399 C103.8083,51.8399 101.5543,50.7809 100.0363,49.0329 L100.0363,60.3959 L93.1353,60.3959 L93.1353,28.1919 L100.0363,28.1919 L100.0363,30.3539 C101.5543,28.6059 103.8083,27.5479 106.8903,27.5479 C112.9173,27.5479 117.8863,32.8389 117.8863,39.6939" id="Fill-1" fill="#FFFFFF"></path> <path d="M138.1245,39.6939 C138.1245,36.4269 135.8245,34.2649 132.8335,34.2649 C129.8435,34.2649 127.5425,36.4269 127.5425,39.6939 C127.5425,42.9599 129.8435,45.1229 132.8335,45.1229 C135.8245,45.1229 138.1245,42.9599 138.1245,39.6939 M120.6425,39.6939 C120.6425,32.8389 126.0705,27.5479 132.8335,27.5479 C139.5965,27.5479 145.0245,32.8389 145.0245,39.6939 C145.0245,46.5479 139.5965,51.8399 132.8335,51.8399 C126.0705,51.8399 120.6425,46.5479 120.6425,39.6939" id="Fill-3" fill="#FFFFFF"></path> <mask id="mask-2" fill="white"> <use xlink:href="#path-1"></use> </mask> <g id="Clip-6"></g> <polygon id="Fill-5" fill="#FFFFFF" mask="url(#mask-2)" points="148.932 51.1945 155.833 51.1945 155.833 17.6105 148.932 17.6105"></polygon> <polygon id="Fill-7" fill="#FFFFFF" mask="url(#mask-2)" points="175.1538 51.1948 167.7928 41.0278 167.7928 51.1948 160.8918 51.1948 160.8918 18.9908 167.7928 18.9908 167.7928 38.2668 174.6938 28.1918 182.7448 28.1918 174.3718 39.6938 182.9748 51.1948"></polygon> <path d="M200.8213,39.6939 C200.8213,36.2429 198.5213,34.0809 195.3463,34.0809 C192.1723,34.0809 189.8723,36.2429 189.8723,39.6939 C189.8723,43.1439 192.1723,45.3059 195.3463,45.3059 C198.5213,45.3059 200.8213,43.1439 200.8213,39.6939 L200.8213,39.6939 Z M207.7223,28.1919 L207.7223,51.1949 L200.8213,51.1949 L200.8213,49.0329 C199.3033,50.7809 197.0493,51.8399 193.9673,51.8399 C187.9403,51.8399 182.9713,46.5479 182.9713,39.6939 C182.9713,32.8389 187.9403,27.5479 193.9673,27.5479 C197.0493,27.5479 199.3033,28.6059 200.8213,30.3539 L200.8213,28.1919 L207.7223,28.1919 Z" id="Fill-8" fill="#FFFFFF" mask="url(#mask-2)"></path> <path d="M230.3994,44.2945 C230.3994,49.5845 225.7984,51.8395 220.8304,51.8395 C216.2304,51.8395 212.7334,50.0905 210.9394,46.3645 L216.9204,42.9595 C217.5184,44.7085 218.8064,45.6745 220.8304,45.6745 C222.4864,45.6745 223.3144,45.1685 223.3144,44.2475 C223.3144,41.7175 211.9974,43.0525 211.9974,35.0935 C211.9974,30.0785 216.2304,27.5485 221.0144,27.5485 C224.7404,27.5485 228.0534,29.2045 229.9854,32.4705 L224.0964,35.6455 C223.4524,34.4485 222.5324,33.6205 221.0144,33.6205 C219.8184,33.6205 219.0824,34.0805 219.0824,34.9085 C219.0824,37.5315 230.3994,35.7825 230.3994,44.2945" id="Fill-9" fill="#FFFFFF" mask="url(#mask-2)"></path> <polygon id="Fill-10" fill="#FFFFFF" mask="url(#mask-2)" points="265.8208 28.1919 258.4598 51.1949 252.0198 51.1949 248.3388 38.9119 244.6588 51.1949 238.2178 51.1949 230.8568 28.1919 238.2178 28.1919 241.5298 40.5219 245.1188 28.1919 251.5598 28.1919 255.1478 40.5219 258.4598 28.1919"></polygon> <path d="M268.577,51.1945 L275.478,51.1945 L275.478,28.1915 L268.577,28.1915 L268.577,51.1945 Z M267.887,22.0275 C267.887,19.7725 269.773,17.8875 272.027,17.8875 C274.281,17.8875 276.167,19.7725 276.167,22.0275 C276.167,24.2815 274.281,26.1685 272.027,26.1685 C269.773,26.1685 267.887,24.2815 267.887,22.0275 L267.887,22.0275 Z" id="Fill-11" fill="#FFFFFF" mask="url(#mask-2)"></path> <path d="M289.2778,34.8169 L289.2778,42.9599 C289.2778,44.9379 290.9798,45.1229 294.0158,44.9379 L294.0158,51.1949 C284.9988,52.1149 282.3768,49.4009 282.3768,42.9599 L282.3768,34.8169 L278.6958,34.8169 L278.6958,28.1919 L282.3768,28.1919 L282.3768,23.8219 L289.2778,21.7519 L289.2778,28.1919 L294.0158,28.1919 L294.0158,34.8169 L289.2778,34.8169 Z" id="Fill-12" fill="#FFFFFF" mask="url(#mask-2)"></path> <path d="M296.3144,39.6939 C296.3144,32.8389 301.5124,27.5479 308.5054,27.5479 C312.9684,27.5479 316.9244,29.8939 318.9024,33.4369 L312.8764,36.9329 C312.0944,35.3229 310.4384,34.3569 308.4134,34.3569 C305.4234,34.3569 303.2154,36.5189 303.2154,39.6939 C303.2154,42.8679 305.4234,45.0299 308.4134,45.0299 C310.4384,45.0299 312.1404,44.0639 312.8764,42.4539 L318.9024,45.9039 C316.9244,49.4929 313.0144,51.8399 308.5054,51.8399 C301.5124,51.8399 296.3144,46.5479 296.3144,39.6939" id="Fill-13" fill="#FFFFFF" mask="url(#mask-2)"></path> <path d="M343.7436,37.0708 L343.7436,51.1948 L336.8426,51.1948 L336.8426,38.0838 C336.8426,35.2308 335.0486,33.8968 332.8406,33.8968 C330.3096,33.8968 328.5606,35.3688 328.5606,38.6348 L328.5606,51.1948 L321.6606,51.1948 L321.6606,18.9908 L328.5606,18.9908 L328.5606,30.3538 C329.8036,28.6518 332.1036,27.5488 335.1396,27.5488 C339.7866,27.5488 343.7436,30.8608 343.7436,37.0708" id="Fill-14" fill="#FFFFFF" mask="url(#mask-2)"></path> <path d="M0,38.188 C0,59.279 17.098,76.376 38.188,76.376 C59.279,76.376 76.376,59.279 76.376,38.188 C76.376,17.097 59.279,-1.42108547e-14 38.188,-1.42108547e-14 C17.098,-1.42108547e-14 0,17.097 0,38.188" id="Fill-15" fill="#D32D79" mask="url(#mask-2)"></path> <path d="M62.6572,26.9898 C63.5402,28.9268 61.7442,31.0018 59.7032,30.3978 C57.9502,29.8808 56.1932,29.3778 54.4262,28.9118 C50.3492,27.8368 46.2212,26.9338 42.1042,25.9888 C41.4092,25.8298 41.1422,25.5498 41.3522,24.8378 C41.7192,23.6018 42.0482,22.3538 42.3972,21.1128 C42.7572,19.8218 42.1082,19.1458 40.7832,19.4618 C39.8682,19.6808 38.9622,19.9408 38.0472,20.1678 C34.4492,21.0588 30.8512,21.9278 27.2662,22.8438 C26.0012,23.1628 25.8022,23.8258 26.6472,24.7908 C27.4722,25.7358 28.3652,26.6218 29.2302,27.5298 C31.7132,30.1268 34.1792,32.7358 36.6822,35.3118 C37.6152,36.2668 38.2232,36.1468 38.6592,34.8958 C39.1022,33.6178 39.4512,32.2968 39.7582,30.9748 C39.9642,30.0798 40.3972,29.9298 41.1892,30.2528 C48.8242,33.3508 56.3502,36.6738 63.3932,40.9838 C63.3992,40.9868 63.4042,40.9898 63.4092,40.9938 C64.2962,41.5318 64.7462,42.5738 64.5402,43.5908 C64.4292,44.1388 64.3012,44.6848 64.1552,45.2268 C63.6632,47.0518 62.9772,48.8358 62.0952,50.5428 C60.8572,52.9458 59.2292,55.2028 57.2162,57.2168 C55.2352,59.1968 53.0152,60.8038 50.6522,62.0398 C40.5072,67.3348 27.6692,65.7268 19.1582,57.2168 C16.8252,54.8838 15.0112,52.2248 13.7162,49.3858 C12.8322,47.4498 14.6282,45.3738 16.6702,45.9768 C18.4232,46.4948 20.1802,46.9978 21.9482,47.4648 C26.0252,48.5398 30.1522,49.4408 34.2692,50.3858 C34.9652,50.5468 35.2312,50.8258 35.0222,51.5348 C34.6562,52.7728 34.3262,54.0208 33.9732,55.2598 C33.6142,56.5538 34.2662,57.2298 35.5872,56.9138 C36.5032,56.6938 37.4112,56.4338 38.3262,56.2078 C41.9212,55.3158 45.5192,54.4468 49.1072,53.5318 C50.3692,53.2128 50.5722,52.5508 49.7262,51.5848 C48.9012,50.6388 48.0092,49.7548 47.1442,48.8428 C44.6602,46.2498 42.1912,43.6358 39.6912,41.0628 C38.7602,40.1048 38.1502,40.2278 37.7142,41.4788 C37.2722,42.7578 36.9222,44.0788 36.6162,45.3998 C36.4092,46.2958 35.9772,46.4458 35.1852,46.1228 C27.5492,43.0238 20.0242,39.7018 12.9812,35.3918 L12.9662,35.3838 C12.0752,34.8428 11.6292,33.7948 11.8372,32.7728 C12.1122,31.4238 12.4902,30.0928 12.9742,28.7888 C13.9632,26.1188 15.3902,23.5758 17.2582,21.2728 C17.8472,20.5438 18.4792,19.8388 19.1582,19.1588 C29.6492,8.6678 46.7212,8.6678 57.2162,19.1588 C59.5492,21.4918 61.3622,24.1508 62.6572,26.9898 M60.9802,15.3938 C48.4122,2.8268 27.9622,2.8268 15.3942,15.3938 C13.8162,16.9688 12.4382,18.6698 11.2572,20.4638 C10.3152,21.8918 9.4992,23.3828 8.8102,24.9138 C3.4612,36.7798 5.6552,51.2448 15.3942,60.9808 C27.9622,73.5528 48.4122,73.5528 60.9802,60.9808 C73.5482,48.4128 73.5482,27.9628 60.9802,15.3938" id="Fill-16" fill="#FFFFFF" mask="url(#mask-2)"></path> </g> </g> </g> </svg> 