<?xml version="1.0" encoding="UTF-8"?>
<svg width="901px" height="212px" viewBox="0 0 901 212" version="1.1" xmlns="http://www.w3.org/2000/svg" xmlns:xlink="http://www.w3.org/1999/xlink">
    <title>Group 21</title>
    <g id="Artboards" stroke="none" stroke-width="1" fill="none" fill-rule="evenodd">
        <g id="Group-21" transform="translate(0.327407, 0.000000)">
            <g id="Group-4-Copy" transform="translate(-0.000000, 0.000000)">
                <path d="M0,105.466705 C0,163.715325 47.2208476,210.933411 105.466705,210.933411 C163.715325,210.933411 210.933411,163.715325 210.933411,105.466705 C210.933411,47.2180859 163.715325,0 105.466705,0 C47.2208476,0 0,47.2180859 0,105.466705" id="Fill-15" fill="#D32D79"></path>
                <path d="M173.2453,74.4479378 C175.690952,79.8128223 170.716557,85.5599236 165.063584,83.8870324 C160.208286,82.455104 155.34191,81.0619513 150.447837,79.771277 C139.155739,76.793863 127.722386,74.2928353 116.3195,71.6754808 C114.394554,71.2351005 113.655042,70.459588 114.23668,68.4875706 C115.253163,65.064237 116.164397,61.6076671 117.131025,58.1704851 C118.128119,54.5948187 116.330579,52.72251 112.660717,53.5977312 C110.126434,54.2042928 107.617079,54.9244115 105.082797,55.5531305 C95.117389,58.020922 85.1519811,60.4277803 75.2225795,62.964814 C71.7188995,63.8483442 71.1677276,65.684647 73.5081305,68.3573953 C75.7931393,70.9747499 78.2664881,73.4286929 80.6622852,75.943569 C87.5394691,83.1364471 94.3695679,90.3625615 101.302146,97.4972762 C103.886283,100.142328 105.570265,99.8099652 106.777858,96.3450863 C108.004838,92.8054258 108.971466,89.1466688 109.821766,85.485142 C110.392326,83.0062718 111.59161,82.5908187 113.785218,83.4854278 C134.931935,92.0659193 155.776754,101.26959 175.283805,113.206943 C175.300423,113.215252 175.314272,113.223561 175.32812,113.23464 C177.784851,114.724732 179.031219,117.610746 178.460659,120.427518 C178.153222,121.945307 177.798699,123.457556 177.394322,124.958727 C176.031626,130.013406 174.131606,134.954528 171.688724,139.682385 C168.259826,146.337943 163.750742,152.589128 158.175321,158.167278 C152.68853,163.651259 146.53978,168.102147 139.994961,171.525481 C111.896277,186.190975 76.3387717,181.737318 52.7657906,158.167278 C46.3040628,151.705598 41.2798133,144.340999 37.693042,136.477856 C35.2446205,131.115742 40.2190153,125.365871 45.8747582,127.035992 C50.7300555,128.47069 55.5964317,129.863843 60.4932747,131.157287 C71.7853724,134.134701 83.2159556,136.630189 94.6188416,139.247544 C96.5465581,139.693463 97.2833003,140.466206 96.7044314,142.429915 C95.6907184,145.858788 94.7767149,149.315357 93.7990082,152.747 C92.8046831,156.330976 94.6105325,158.203284 98.2693162,157.328063 C100.806368,156.718732 103.321263,155.998613 105.855545,155.372664 C115.812644,152.902103 125.778052,150.495244 135.715762,147.96098 C139.211133,147.07745 139.773384,145.243917 137.430211,142.568399 C135.145203,139.948275 132.674624,137.499871 130.278827,134.973916 C123.398873,127.792117 116.560465,120.552154 109.636196,113.425748 C107.057598,110.772388 105.368077,111.113059 104.160484,114.577938 C102.936273,118.120368 101.966876,121.779125 101.119345,125.437883 C100.546016,127.919522 99.3495021,128.334976 97.1558937,127.440366 C76.0064068,118.857105 55.1643573,109.656204 35.657307,97.7188512 L35.6157613,97.6966937 C33.1479519,96.1982928 31.9126623,93.2956605 32.4887615,90.46504 C33.2504311,86.7287317 34.2973805,83.0422778 35.637919,79.4306054 C38.3771598,72.0355401 42.3295325,64.9922251 47.5033462,58.6136351 C49.134704,56.594533 50.8851592,54.6419034 52.7657906,52.758516 C81.8227927,23.7017257 129.10724,23.7017257 158.175321,52.758516 C164.637049,59.2201966 169.658529,66.5847954 173.2453,74.4479378 M168.6005,42.330643 C133.790816,7.52398166 77.150296,7.52398166 42.3406113,42.330643 C37.9700128,46.6929006 34.1533557,51.4041388 30.8823311,56.372958 C28.2732666,60.3280716 26.0131852,64.4576755 24.1048567,68.6980668 C9.28969094,101.563177 15.3664293,141.626705 42.3406113,168.592382 C77.150296,203.412891 133.790816,203.412891 168.6005,168.592382 C203.410185,133.782951 203.410185,77.1428437 168.6005,42.330643" id="Fill-16" fill="#FFFFFF"></path>
            </g>
            <g id="Group-15-Copy" transform="translate(265.325595, 15.005645)" fill="#121E27">
                <path d="M45.0301976,55.1668976 C45.0301976,46.5433179 39.265168,41.1407739 31.3069206,41.1407739 C23.3511797,41.1407739 17.58615,46.5433179 17.58615,55.1668976 C17.58615,63.7879784 23.3511797,69.1905224 31.3069206,69.1905224 C39.265168,69.1905224 45.0301976,63.7879784 45.0301976,55.1668976 M62.3277931,55.1668976 C62.3277931,72.2941115 49.8728225,85.5180998 34.7659384,85.5180998 C27.0407986,85.5180998 21.3910696,82.8718028 17.58615,78.5037885 L17.58615,106.89838 L0.288554598,106.89838 L0.288554598,26.4249638 L17.58615,26.4249638 L17.58615,31.8275078 C21.3910696,27.4594935 27.0407986,24.8156954 34.7659384,24.8156954 C49.8728225,24.8156954 62.3277931,38.0371848 62.3277931,55.1668976" id="Fill-1"></path>
                <path d="M112.807001,55.3580897 C112.807001,47.1428747 107.044758,41.7062983 99.5513362,41.7062983 C92.06042,41.7062983 86.2956715,47.1428747 86.2956715,55.3580897 C86.2956715,63.5707902 92.06042,69.0098812 99.5513362,69.0098812 C107.044758,69.0098812 112.807001,63.5707902 112.807001,55.3580897 M69.0089419,55.3580897 C69.0089419,38.1204713 82.6078358,24.8156954 99.5513362,24.8156954 C116.494837,24.8156954 130.093731,38.1204713 130.093731,55.3580897 C130.093731,72.5931935 116.494837,85.9004841 99.5513362,85.9004841 C82.6078358,85.9004841 69.0089419,72.5931935 69.0089419,55.3580897" id="Fill-3"></path>
                <polygon id="Fill-5" points="139.638229 83.9915844 156.818326 83.9915844 156.818326 0 139.638229 0"></polygon>
                <polygon id="Fill-7" points="205.932879 83.9915844 187.480183 58.3789039 187.480183 83.9915844 170.180623 83.9915844 170.180623 2.86334947 187.480183 2.86334947 187.480183 51.4233997 204.779743 26.0424853 224.962144 26.0424853 203.972547 55.0182945 225.538713 83.9915844"></polygon>
                <path d="M270.280356,55.3580897 C270.280356,46.6801873 264.515326,41.2436109 256.557079,41.2436109 C248.601338,41.2436109 242.836308,46.6801873 242.836308,55.3580897 C242.836308,64.0334776 248.601338,69.4700539 256.557079,69.4700539 C264.515326,69.4700539 270.280356,64.0334776 270.280356,55.3580897 L270.280356,55.3580897 Z M287.577951,26.4351011 L287.577951,84.2785637 L270.280356,84.2785637 L270.280356,78.8419874 C266.475436,83.2375172 260.825707,85.9004841 253.100568,85.9004841 C237.993683,85.9004841 225.538713,72.5931935 225.538713,55.3580897 C225.538713,38.1204713 237.993683,24.8156954 253.100568,24.8156954 C260.825707,24.8156954 266.475436,27.4761477 270.280356,31.8716775 L270.280356,26.4351011 L287.577951,26.4351011 Z" id="Fill-8"></path>
                <path d="M343.890491,66.927007 C343.890491,80.229816 332.381621,85.9004841 319.954743,85.9004841 C308.448375,85.9004841 299.701034,81.5022586 295.21355,72.132454 L310.17433,63.5698709 C311.670158,67.9680964 314.891941,70.397305 319.954743,70.397305 C324.097036,70.397305 326.168182,69.1248624 326.168182,66.8088157 C326.168182,60.4466028 297.860015,63.8037389 297.860015,43.7891724 C297.860015,31.1779084 308.448375,24.8156954 320.414998,24.8156954 C329.735156,24.8156954 338.022243,28.980053 342.854918,37.1930915 L328.124265,45.1772916 C326.513373,42.1671853 324.2121,40.0850065 320.414998,40.0850065 C317.423342,40.0850065 315.582323,41.2417725 315.582323,43.3239513 C315.582323,49.9200322 343.890491,45.5218067 343.890491,66.927007" id="Fill-9"></path>
                <polygon id="Fill-10" points="433.608774 26.724595 415.122192 83.9915844 398.948629 83.9915844 389.704082 53.4125108 380.462047 83.9915844 364.285973 83.9915844 345.799391 26.724595 364.285973 26.724595 372.603805 57.4206773 381.617301 26.724595 397.793375 26.724595 406.80436 57.4206773 415.122192 26.724595"></polygon>
                <path d="M440.130637,83.9915844 L457.629306,83.9915844 L457.629306,25.9857475 L440.130637,25.9857475 L440.130637,83.9915844 Z M438.381023,10.4422106 C438.381023,4.7558583 443.165836,0 448.881239,0 C454.596643,0 459.378919,4.7558583 459.378919,10.4422106 C459.378919,16.1260413 454.596643,20.8818996 448.881239,20.8818996 C443.165836,20.8818996 438.381023,16.1260413 438.381023,10.4422106 L438.381023,10.4422106 Z" id="Fill-11"></path>
                <path d="M491.476344,43.3393746 L491.476344,63.8077706 C491.476344,68.7797081 495.71779,69.2447275 503.283611,68.7797081 L503.283611,84.5074194 C480.812922,86.8199485 474.278803,79.9979877 474.278803,63.8077706 L474.278803,43.3393746 L465.105618,43.3393746 L465.105618,26.6866516 L474.278803,26.6866516 L474.278803,15.7021385 L491.476344,10.4989481 L491.476344,26.6866516 L503.283611,26.6866516 L503.283611,43.3393746 L491.476344,43.3393746 Z" id="Fill-12"></path>
                <path d="M509.96476,55.3580897 C509.96476,38.1204713 522.923525,24.8156954 540.357277,24.8156954 C551.483665,24.8156954 561.346088,30.7149591 566.2773,39.6242052 L551.254307,48.4152649 C549.304758,44.3667506 545.176302,41.937642 540.127918,41.937642 C532.673761,41.937642 527.169153,47.3742183 527.169153,55.3580897 C527.169153,63.3394465 532.673761,68.7760229 540.127918,68.7760229 C545.176302,68.7760229 549.419437,66.3469143 551.254307,62.2984 L566.2773,70.9737878 C561.346088,79.9987057 551.598345,85.9004841 540.357277,85.9004841 C522.923525,85.9004841 509.96476,72.5931935 509.96476,55.3580897" id="Fill-13"></path>
                <path d="M628.316538,48.4104395 L628.316538,83.9915844 L611.016978,83.9915844 L611.016978,50.9623865 C611.016978,43.7751162 606.519745,40.4145068 600.984688,40.4145068 C594.639928,40.4145068 590.255501,44.1227654 590.255501,52.3504643 L590.255501,83.9915844 L572.958448,83.9915844 L572.958448,2.86334947 L590.255501,2.86334947 L590.255501,31.4889902 C593.371478,27.2013161 599.137162,24.4226413 606.747865,24.4226413 C618.397054,24.4226413 628.316538,32.7662233 628.316538,48.4104395" id="Fill-14"></path>
            </g>
            <path d="M275.642158,179.470588 C281.531864,179.470588 286.230393,176.625 289.009805,172.191176 L289.009805,178.676471 L293.377452,178.676471 L293.377452,145.588235 L289.009805,145.588235 L289.009805,152.073529 C286.230393,147.639706 281.531864,144.794118 275.642158,144.794118 C266.311276,144.794118 258.568629,152.338235 258.568629,162.132353 C258.568629,171.926471 266.311276,179.470588 275.642158,179.470588 Z M275.97304,175.235294 C268.627452,175.235294 262.936276,169.477941 262.936276,162.132353 C262.936276,154.786765 268.627452,149.029412 275.97304,149.029412 C283.318629,149.029412 289.009805,154.786765 289.009805,162.132353 C289.009805,169.477941 283.318629,175.235294 275.97304,175.235294 Z M307.009805,178.676471 L307.009805,130.367647 L302.642158,130.367647 L302.642158,178.676471 L307.009805,178.676471 Z M320.642158,191.911765 L320.642158,172.191176 C323.42157,176.625 328.120099,179.470588 334.009805,179.470588 C343.340687,179.470588 351.083334,171.926471 351.083334,162.132353 C351.083334,152.338235 343.340687,144.794118 334.009805,144.794118 C328.120099,144.794118 323.42157,147.639706 320.642158,152.073529 L320.642158,145.588235 L316.274511,145.588235 L316.274511,191.911765 L320.642158,191.911765 Z M333.678923,175.235294 C326.333334,175.235294 320.642158,169.477941 320.642158,162.132353 C320.642158,154.786765 326.333334,149.029412 333.678923,149.029412 C341.024511,149.029412 346.715687,154.786765 346.715687,162.132353 C346.715687,169.477941 341.024511,175.235294 333.678923,175.235294 Z M362.730393,178.676471 L362.730393,161.338235 C362.730393,152.470588 367.627452,149.029412 373.450982,149.029412 C379.208334,149.029412 382.450982,152.470588 382.450982,158.360294 L382.450982,178.676471 L386.818629,178.676471 L386.818629,158.360294 C386.818629,150.088235 381.92157,144.794118 373.84804,144.794118 C369.149511,144.794118 365.311276,146.580882 362.730393,150.75 L362.730393,132.352941 L358.362746,132.352941 L358.362746,178.676471 L362.730393,178.676471 Z M410.377452,179.470588 C416.267158,179.470588 420.965687,176.625 423.745099,172.191176 L423.745099,178.676471 L428.112746,178.676471 L428.112746,145.588235 L423.745099,145.588235 L423.745099,152.073529 C420.965687,147.639706 416.267158,144.794118 410.377452,144.794118 C401.04657,144.794118 393.303923,152.338235 393.303923,162.132353 C393.303923,171.926471 401.04657,179.470588 410.377452,179.470588 Z M410.708334,175.235294 C403.362746,175.235294 397.67157,169.477941 397.67157,162.132353 C397.67157,154.786765 403.362746,149.029412 410.708334,149.029412 C418.053923,149.029412 423.745099,154.786765 423.745099,162.132353 C423.745099,169.477941 418.053923,175.235294 410.708334,175.235294 Z" id="alpha" fill="#3A3A3A" fill-rule="nonzero"></path>
        </g>
    </g>
</svg>