<?xml version="1.0" encoding="UTF-8"?>
<svg width="136px" height="32px" viewBox="0 0 136 32" version="1.1" xmlns="http://www.w3.org/2000/svg" xmlns:xlink="http://www.w3.org/1999/xlink">
    <title>Group Copy 2</title>
    <g id="Artboards" stroke="none" stroke-width="1" fill="none" fill-rule="evenodd">
        <g id="Mobile-Copy-3" transform="translate(-19.000000, -19.000000)">
            <g id="Group-Copy-2" transform="translate(19.000000, 19.000000)">
                <g id="Group-4-Copy" transform="translate(0.327407, 0.000000)">
                    <path d="M0,15.937191 C0,24.7392047 7.13559475,31.8743821 15.937191,31.8743821 C24.7392047,31.8743821 31.8743821,24.7392047 31.8743821,15.937191 C31.8743821,7.13517742 24.7392047,0 15.937191,0 C7.13559475,0 0,7.13517742 0,15.937191" id="Fill-15" fill="#D32D79"></path>
                    <path d="M26.1792898,11.2499106 C26.5488549,12.0606043 25.7971686,12.9290551 24.9429416,12.6762627 C24.2092522,12.4598824 23.4738887,12.2493615 22.7343398,12.0543263 C21.0279784,11.604406 19.3002717,11.2264729 17.5771689,10.8309615 C17.2862881,10.7644152 17.1745396,10.6472266 17.2624317,10.3492329 C17.4160335,9.83192914 17.5537311,9.30960303 17.6997993,8.79020664 C17.8504714,8.24988371 17.5788431,7.96695707 17.0242861,8.09921272 C16.6413278,8.19087091 16.2621364,8.29968885 15.8791782,8.39469528 C14.3732943,8.76760599 12.8674105,9.13130903 11.3669676,9.514683 C10.8375226,9.64819424 10.7542344,9.92567999 11.1078953,10.329562 C11.4531855,10.7250733 11.826936,11.0958914 12.1889675,11.4759171 C13.2281864,12.5628409 14.2602903,13.6547871 15.3078798,14.7329217 C15.6983717,15.1326184 15.9528401,15.0823947 16.1353207,14.558813 C16.3207311,14.023931 16.4667993,13.4710522 16.5952891,12.9177548 C16.6815071,12.54317 16.8627321,12.4803904 17.1942107,12.6155757 C20.3897147,13.9121834 23.5395984,15.3029603 26.4873305,17.1068269 C26.4898417,17.1080825 26.4919344,17.1093381 26.494027,17.1110123 C26.8652663,17.3361817 27.0536064,17.7722905 26.9673885,18.1979361 C26.9209313,18.4272908 26.867359,18.6558085 26.8062531,18.882652 C26.6003346,19.6464702 26.3132205,20.3931287 25.9440739,21.1075604 C25.4259293,22.1132892 24.7445566,23.0579127 23.9020485,23.9008332 C23.0729335,24.7295236 22.1437889,25.4021022 21.1547941,25.9194059 C16.9087708,28.1355251 11.5356366,27.462528 7.97349724,23.9008332 C6.99705838,22.9244014 6.23783846,21.8115287 5.69583746,20.6233205 C5.32585377,19.8130454 6.07754009,18.944176 6.93218568,19.1965499 C7.66587506,19.4133487 8.40123857,19.6238696 9.14120595,19.8193234 C10.8475674,20.2692437 12.5748555,20.6463397 14.2979583,21.0418511 C14.5892577,21.1092345 14.7005876,21.2260045 14.6131141,21.5227426 C14.4599308,22.0408835 14.3218147,22.5632096 14.1740723,23.0817689 C14.0238188,23.6233474 14.2967027,23.9062741 14.8495856,23.7740184 C15.2329623,23.6819417 15.6129908,23.5731238 15.9959491,23.4785358 C17.5005773,23.1052066 19.0064611,22.7415036 20.5081597,22.3585481 C21.036349,22.2250369 21.1213114,21.9479697 20.767232,21.5436692 C20.4219417,21.1477393 20.0486098,20.7777583 19.6865782,20.3960584 C18.6469408,19.3108088 17.6135814,18.2167699 16.5672474,17.1398909 C16.1775926,16.7389386 15.9222871,16.7904179 15.7398065,17.3139996 C15.5548147,17.8493001 15.4083279,18.402179 15.2802566,18.9550578 C15.1936202,19.3300612 15.0128137,19.3928407 14.6813351,19.2576554 C11.4854126,17.9606292 8.33594733,16.5702708 5.38821527,14.7664042 L5.38193727,14.7630559 C5.00902384,14.5366309 4.82235786,14.0980109 4.90941285,13.6702727 C5.02450959,13.105675 5.18271528,12.5486109 5.38528554,12.002847 C5.79921526,10.8853705 6.39646269,9.82104735 7.17828343,8.85717152 C7.42479971,8.55206276 7.68931294,8.25699873 7.97349724,7.97239797 C12.3643331,3.5815941 19.5095385,3.5815941 23.9020485,7.97239797 C24.8784874,8.94882971 25.6372888,10.0617024 26.1792898,11.2499106 M25.4774089,6.39663049 C20.2172788,1.13695723 11.6582669,1.13695723 6.39813682,6.39663049 C5.73769082,7.05581609 5.16095154,7.76773653 4.66666337,8.51858032 C4.27240473,9.11624193 3.93088132,9.74027096 3.64251168,10.3810412 C1.40377552,15.3473246 2.32203821,21.4013688 6.39813682,25.4761821 C11.6582669,30.737948 20.2172788,30.737948 25.4774089,25.4761821 C30.7375391,20.2160903 30.7375391,11.6571408 25.4774089,6.39663049" id="Fill-16" fill="#FFFFFF"></path>
                </g>
                <g id="Group-15-Copy" transform="translate(40.421053, 8.267520)" fill="#121E27">
                    <path d="M6.8045632,8.33633119 C6.8045632,7.03321248 5.93340317,6.21682806 4.73082355,6.21682806 C3.52862271,6.21682806 2.65746267,7.03321248 2.65746267,8.33633119 C2.65746267,9.63907229 3.52862271,10.4554567 4.73082355,10.4554567 C5.93340317,10.4554567 6.8045632,9.63907229 6.8045632,8.33633119 M9.41842207,8.33633119 C9.41842207,10.9244435 7.53633763,12.9227351 5.25351957,12.9227351 C4.08616513,12.9227351 3.2324283,12.5228502 2.65746267,11.8627947 L2.65746267,16.153533 L0.0436038059,16.153533 L0.0436038059,3.99310564 L2.65746267,3.99310564 L2.65746267,4.80949007 C3.2324283,4.14943458 4.08616513,3.7499273 5.25351957,3.7499273 C7.53633763,3.7499273 9.41842207,5.74784126 9.41842207,8.33633119" id="Fill-1"></path>
                    <path d="M17.0463912,8.36522245 C17.0463912,7.12381217 16.1756523,6.30228508 15.043313,6.30228508 C13.9113524,6.30228508 13.0402348,7.12381217 13.0402348,8.36522245 C13.0402348,9.60625274 13.9113524,10.4281598 15.043313,10.4281598 C16.1756523,10.4281598 17.0463912,9.60625274 17.0463912,8.36522245 M10.4280179,8.36522245 C10.4280179,5.76042678 12.4829619,3.7499273 15.043313,3.7499273 C17.6036642,3.7499273 19.6586082,5.76042678 19.6586082,8.36522245 C19.6586082,10.9696381 17.6036642,12.9805176 15.043313,12.9805176 C12.4829619,12.9805176 10.4280179,10.9696381 10.4280179,8.36522245" id="Fill-3"></path>
                    <polygon id="Fill-5" points="21.1008879 12.6920616 23.6969914 12.6920616 23.6969914 0 21.1008879 0"></polygon>
                    <polygon id="Fill-7" points="31.1187462 12.6920616 28.3303387 8.82170103 28.3303387 12.6920616 25.716183 12.6920616 25.716183 0.43268392 28.3303387 0.43268392 28.3303387 7.77064706 30.9444944 3.93530889 33.9942796 3.93530889 30.8225182 8.31387561 34.0814055 12.6920616"></polygon>
                    <path d="M40.8423649,8.36522245 C40.8423649,7.05389497 39.9712049,6.23236788 38.7686252,6.23236788 C37.5664244,6.23236788 36.6952644,7.05389497 36.6952644,8.36522245 C36.6952644,9.67616994 37.5664244,10.497697 38.7686252,10.497697 C39.9712049,10.497697 40.8423649,9.67616994 40.8423649,8.36522245 L40.8423649,8.36522245 Z M43.4562238,3.9946375 L43.4562238,12.7354274 L40.8423649,12.7354274 L40.8423649,11.9139003 C40.2673993,12.5781137 39.4136624,12.9805176 38.246308,12.9805176 C35.9634899,12.9805176 34.0814055,10.9696381 34.0814055,8.36522245 C34.0814055,5.76042678 35.9634899,3.7499273 38.246308,3.7499273 C39.4136624,3.7499273 40.2673993,4.1519512 40.8423649,4.8161646 L40.8423649,3.9946375 L43.4562238,3.9946375 Z" id="Fill-8"></path>
                    <path d="M51.9656742,10.1134144 C51.9656742,12.1236166 50.2265561,12.9805176 48.3487168,12.9805176 C46.6099767,12.9805176 45.2881562,12.3158969 44.6100475,10.9000153 L46.8707877,9.60611383 C47.0968239,10.2707346 47.5836711,10.637815 48.3487168,10.637815 C48.9746632,10.637815 49.2876364,10.4455348 49.2876364,10.0955544 C49.2876364,9.13415331 45.0099578,9.64145387 45.0099578,6.6170305 C45.0099578,4.71132838 46.6099767,3.7499273 48.4182664,3.7499273 C49.8266459,3.7499273 51.0789167,4.37920801 51.8091876,5.62028939 L49.5832222,6.82679073 C49.3397986,6.37193023 48.9920506,6.05728988 48.4182664,6.05728988 C47.9661939,6.05728988 47.6879955,6.23209007 47.6879955,6.54673042 C47.6879955,7.54347153 51.9656742,6.87885079 51.9656742,10.1134144" id="Fill-9"></path>
                    <polygon id="Fill-10" points="65.5231037 4.03838325 62.7295756 12.6920616 60.2855707 12.6920616 58.8886169 8.07122385 57.4920426 12.6920616 55.0476582 12.6920616 52.2541301 4.03838325 55.0476582 4.03838325 56.304575 8.67690234 57.6666144 4.03838325 60.1109989 4.03838325 61.4726588 8.67690234 62.7295756 4.03838325"></polygon>
                    <path d="M66.5086295,12.6920616 L69.1528729,12.6920616 L69.1528729,3.92673518 L66.5086295,3.92673518 L66.5086295,12.6920616 Z M66.2442435,1.57793405 C66.2442435,0.718663032 66.9672818,0 67.8309428,0 C68.6946038,0 69.4172589,0.718663032 69.4172589,1.57793405 C69.4172589,2.43682401 68.6946038,3.15548704 67.8309428,3.15548704 C66.9672818,3.15548704 66.2442435,2.43682401 66.2442435,1.57793405 L66.2442435,1.57793405 Z" id="Fill-11"></path>
                    <path d="M74.2675365,6.54906105 L74.2675365,9.64206311 C74.2675365,10.3933781 74.908466,10.4636477 76.0517457,10.3933781 L76.0517457,12.77001 C72.6561749,13.1194589 71.6687969,12.0885848 71.6687969,9.64206311 L71.6687969,6.54906105 L70.2826268,6.54906105 L70.2826268,4.03264958 L71.6687969,4.03264958 L71.6687969,2.37276759 L74.2675365,1.58650771 L74.2675365,4.03264958 L76.0517457,4.03264958 L76.0517457,6.54906105 L74.2675365,6.54906105 Z" id="Fill-12"></path>
                    <path d="M77.0613415,8.36522245 C77.0613415,5.76042678 79.0195549,3.7499273 81.6539885,3.7499273 C83.3353094,3.7499273 84.8256311,4.6413716 85.5707919,5.98765768 L83.3006508,7.31608447 C83.0060523,6.70430897 82.3821967,6.33724367 81.6193299,6.33724367 C80.4929239,6.33724367 79.6611165,7.15877077 79.6611165,8.36522245 C79.6611165,9.57129414 80.4929239,10.3928212 81.6193299,10.3928212 C82.3821967,10.3928212 83.0233816,10.0257559 83.3006508,9.41398044 L85.5707919,10.7249279 C84.8256311,12.0886933 83.3526388,12.9805176 81.6539885,12.9805176 C79.0195549,12.9805176 77.0613415,10.9696381 77.0613415,8.36522245" id="Fill-13"></path>
                    <path d="M94.9456102,7.3153553 L94.9456102,12.6920616 L92.3314545,12.6920616 L92.3314545,7.70098286 C92.3314545,6.61490645 91.6518725,6.10708103 90.8154639,6.10708103 C89.8567003,6.10708103 89.1941646,6.66744011 89.1941646,7.91073683 L89.1941646,12.6920616 L86.5803878,12.6920616 L86.5803878,0.43268392 L89.1941646,0.43268392 L89.1941646,4.7583363 C89.6650233,4.1104211 90.5362822,3.69053247 91.6863441,3.69053247 C93.446666,3.69053247 94.9456102,4.95134041 94.9456102,7.3153553" id="Fill-14"></path>
                </g>
            </g>
        </g>
    </g>
</svg>