<svg width="200" height="100" viewBox="0 0 200 100" fill="none" xmlns="http://www.w3.org/2000/svg">
<path fill-rule="evenodd" clip-rule="evenodd" d="M188.014 45.9113V49.6835C187.814 49.4859 187.626 49.2917 187.443 49.1027C187.026 48.673 186.635 48.2701 186.204 47.9154C183.614 45.746 180.571 44.8777 177.237 44.8412C172.142 44.7853 167.686 46.4415 164.101 50.0508C159.137 55.0487 157.462 61.1436 158.734 68.0143C160.324 76.6093 167.589 83.2197 176.714 83.2854C181.123 83.317 184.93 81.9988 187.858 78.5671C187.885 78.5355 187.945 78.5355 187.894 78.5525C187.894 79.0574 187.906 79.5637 187.919 80.0702C187.946 81.2009 187.973 82.3329 187.865 83.4532C187.629 85.934 186.421 87.8748 184.112 89.0033C182.001 90.0369 179.757 90.0953 177.478 89.8278C175.33 89.5772 173.479 88.7309 172.074 87.0503C171.751 86.6642 171.467 86.244 171.178 85.8177C171.045 85.6209 170.911 85.4229 170.772 85.2262C168.198 86.7138 165.62 88.2045 163.031 89.7021C162.399 90.0678 161.765 90.434 161.132 90.8006C163.16 94.3588 166.064 96.8614 169.829 98.3036C175.233 100.373 180.751 100.502 186.299 98.9457C190.453 97.7783 193.914 95.5602 196.322 91.8926C198.35 88.8014 199.07 85.343 199.072 81.7045C199.077 69.9624 199.075 58.2226 199.072 46.4804C199.072 46.3419 199.063 46.2021 199.055 46.0665C199.052 46.0141 199.048 45.9622 199.046 45.9113H188.014ZM178.347 55.2046C178.518 55.1919 178.677 55.18 178.818 55.1655C182.014 55.2725 184.645 56.1821 186.503 58.692C189.631 62.9263 188.539 70.8914 181.277 72.4188C178.509 73.0001 175.831 72.6887 173.445 71.0714C170.614 69.1525 169.588 66.3434 169.858 63.0382C170.191 58.9425 172.942 56.1018 177.02 55.3552C177.478 55.2698 177.945 55.2348 178.347 55.2046Z" fill="#FEFEFE"/>
<path d="M74.2715 66.1318C74.5609 65.0689 74.8381 64.0693 75.1057 63.0697C76.6014 57.5124 78.102 51.9551 79.5856 46.3928C79.6707 46.0718 79.7583 45.9162 80.128 45.9162C83.9366 45.9283 87.7429 45.9234 91.5515 45.9259C91.6294 45.9259 91.7072 45.9453 91.8361 45.9624C87.7891 58.6068 83.7518 71.2246 79.7169 83.8399C76.1563 83.8399 72.6347 83.8399 69.0814 83.8399C67.07 77.1346 65.0635 70.4341 63.0084 63.5829C60.9606 70.4171 58.9541 77.1103 56.933 83.8569C56.6169 83.8569 56.2958 83.8569 55.9748 83.8569C52.9565 83.8569 49.9383 83.8399 46.9201 83.8739C46.4093 83.8788 46.2391 83.7037 46.0956 83.2562C42.1678 70.957 38.2278 58.6604 34.2926 46.3637C34.2561 46.2493 34.2391 46.1302 34.2002 45.9672C34.3607 45.9526 34.5091 45.9283 34.6574 45.9283C38.3639 45.9259 42.0705 45.9356 45.777 45.9162C46.2099 45.9137 46.3412 46.0548 46.4507 46.4634C48.1702 52.9206 49.914 59.3705 51.6529 65.8205C51.6724 65.8885 51.6992 65.9566 51.7818 66.195C52.1758 64.8525 52.5236 63.6729 52.8666 62.4909C54.4158 57.1597 55.9699 51.8286 57.5046 46.4926C57.6335 46.0426 57.8256 45.9113 58.2926 45.9162C61.4105 45.9405 64.5309 45.9405 67.6513 45.9162C68.1523 45.9113 68.3834 46.0353 68.5293 46.5436C70.3874 53.0227 72.2723 59.4921 74.1523 65.9639C74.162 65.9931 74.1912 66.0175 74.2715 66.1318Z" fill="#FEFEFE"/>
<path d="M127.583 83.5652C123.777 83.5652 120.036 83.5652 116.247 83.5652C116.247 71.0253 116.247 58.4684 116.247 45.8872C120 45.8872 123.74 45.8872 127.542 45.8872C127.542 46.9865 127.542 48.0906 127.542 49.2386C127.658 49.2021 127.724 49.2021 127.748 49.1705C129.59 46.9281 132.022 45.7072 134.816 45.1721C138.163 44.5325 141.456 44.6735 144.591 46.1571C148.657 48.0858 151.029 51.3886 152.014 55.6885C152.371 57.2499 152.527 58.8867 152.539 60.4895C152.592 68.0411 152.563 75.5928 152.563 83.1469C152.563 83.2685 152.553 83.3877 152.544 83.5531C148.784 83.5531 145.033 83.5531 141.225 83.5531C141.225 83.3293 141.225 83.1129 141.225 82.8964C141.225 76.0525 141.249 69.2086 141.2 62.3671C141.193 61.2556 141.023 60.0955 140.66 59.0497C139.97 57.0529 138.45 55.8831 136.385 55.4234C134.785 55.0683 133.201 55.1486 131.674 55.725C129.273 56.6346 128.125 58.5389 127.746 60.9686C127.62 61.7834 127.59 62.62 127.588 63.4469C127.576 69.9066 127.581 76.3638 127.581 82.8234C127.583 83.0618 127.583 83.3001 127.583 83.5652Z" fill="#FEFEFE"/>
<path d="M31.2768 52.8965C28.0348 54.6403 24.8463 56.3549 21.6724 58.0622C21.2128 57.4712 20.8188 56.8584 20.3178 56.3452C18.7612 54.7497 16.8593 54.47 14.7896 55.0635C13.9943 55.2921 13.469 55.8296 13.3741 56.6954C13.2793 57.5588 13.7924 58.1303 14.4856 58.3954C15.9813 58.9718 17.5135 59.4729 19.0555 59.9131C21.67 60.6597 24.2991 61.3504 26.6655 62.7562C30.8609 65.2491 32.3177 69.1332 31.8897 73.6009C31.3862 78.864 28.2002 81.9941 23.4187 83.5482C18.1897 85.2482 12.9169 85.1388 7.75596 83.1202C4.37535 81.7971 1.55168 79.0586 0 75.6804C3.24928 73.8344 6.501 71.986 9.62382 70.2106C10.2902 71.1421 10.8423 72.1368 11.606 72.9297C12.9096 74.2795 14.6534 74.6102 16.458 74.5324C17.2728 74.4984 18.1021 74.3476 18.8877 74.1238C19.6951 73.8928 20.2205 73.3188 20.3007 72.4214C20.3786 71.5239 19.8435 70.9791 19.1285 70.697C17.6716 70.1255 16.1881 69.6147 14.6874 69.1648C12.0656 68.3768 9.42195 67.6617 7.0312 66.2657C4.22942 64.6313 2.32995 62.3281 1.86056 59.0545C1.09931 53.7428 3.26388 48.8981 8.50262 46.556C14.2959 43.9634 20.1037 44.1117 25.7049 47.2589C28.0616 48.5868 29.854 50.5179 31.2768 52.8965Z" fill="#FEFEFE"/>
<path d="M111.307 30.0224C111.135 30.1488 110.938 30.2534 110.794 30.4066C105.784 35.7354 97.8336 35.7548 92.804 30.4455C92.6849 30.3191 92.5243 30.2291 92.3809 30.1221C92.269 29.9324 92.1741 29.7305 92.0428 29.5578C89.939 26.812 89.0829 23.7305 89.5791 20.3013C89.9244 17.9032 90.9119 15.7824 92.5608 14.007C93.2953 13.2166 94.1466 12.5331 94.9443 11.8011C96.0776 11.283 97.1721 10.6337 98.3541 10.2737C101.764 9.23278 105.023 9.7192 108.082 11.5433C108.306 11.677 108.54 11.7962 108.768 11.9227C110.845 13.5425 112.502 15.4687 113.399 17.9981C114.637 21.4833 114.282 24.8177 112.538 28.0329C112.168 28.7163 111.721 29.3608 111.307 30.0224Z" fill="#59B37E"/>
<path d="M107.679 83.8326C103.86 83.8326 100.081 83.8326 96.2771 83.8326C96.2771 71.2076 96.2771 58.6045 96.2771 45.9624C100.069 45.9624 103.86 45.9624 107.679 45.9624C107.679 58.5777 107.679 71.1808 107.679 83.8326Z" fill="#FEFEFE"/>
<path opacity="0.142346" d="M123.592 8.76354C125.222 4.06959 128.471 1.13405 133.337 0.214715C137.085 -0.495458 140.459 0.581962 143.365 3.0627C145.466 4.85516 146.831 7.11215 147.407 9.79962C148.181 13.4016 147.412 16.7092 145.216 19.6521C143.204 22.3468 140.502 23.9861 137.187 24.5406C134.879 24.9273 132.642 24.5698 130.494 23.6456C130.314 23.5677 130.115 23.5361 129.925 23.4826C130.575 21.4421 130.708 19.3699 130.222 17.2808C129.322 13.4259 127.043 10.6363 123.592 8.76354Z" fill="#59B37E"/>
<path opacity="0.142346" d="M73.8944 23.485C72.1725 24.2317 70.3922 24.7254 68.5025 24.6865C62.6046 24.5673 57.6212 20.2917 56.5025 14.5714C55.2086 7.96578 59.8539 1.33101 66.6395 0.190356C70.453 -0.449286 73.8361 0.625702 76.7473 3.16968C78.3476 4.56813 79.5004 6.27304 80.23 8.26979C80.2835 8.41572 80.3906 8.53975 80.4708 8.67352C78.3549 9.70473 76.6305 11.1932 75.3561 13.1705C73.2864 16.376 72.8316 19.8271 73.8944 23.485Z" fill="#59B37E"/>
<path opacity="0.550433" d="M123.592 8.76362C127.043 10.6363 129.322 13.426 130.222 17.2808C130.711 19.3724 130.575 21.4422 129.925 23.4827C129.074 25.9537 127.649 28.0161 125.562 29.6067C121.308 32.8511 115.756 33.0117 111.307 30.0226C111.718 29.3611 112.168 28.7166 112.538 28.0331C114.282 24.8179 114.637 21.4835 113.399 17.9983C112.502 15.4689 110.843 13.5427 108.768 11.9229C112.47 7.57433 118.164 6.31207 123.368 8.68823C123.439 8.71984 123.517 8.73687 123.592 8.76362Z" fill="#59B37E"/>
<path opacity="0.550433" d="M73.8945 23.4849C72.8317 19.8271 73.2889 16.3783 75.3537 13.1704C76.6282 11.1931 78.3525 9.70466 80.4684 8.67345C85.0213 6.6767 89.2945 7.18257 93.2564 10.1668C93.8766 10.6337 94.3825 11.2539 94.9419 11.8011C94.1441 12.5332 93.2929 13.2166 92.5584 14.007C90.9094 15.7825 89.9244 17.9057 89.5767 20.3013C89.0805 23.7306 89.9366 26.812 92.0404 29.5579C92.1741 29.7306 92.2666 29.9349 92.3784 30.1221C85.5345 34.6142 76.8325 31.2385 74.1304 24.0346C74.0623 23.8473 73.9747 23.6673 73.8945 23.4849Z" fill="#59B37E"/>
</svg>
