<svg width="107" height="107" viewBox="0 0 107 107" fill="none" xmlns="http://www.w3.org/2000/svg">
<path d="M94.0909 35.353C87.6318 35.353 84.0236 41.7906 85.4936 46.5741L69.68 62.4894C68.3436 62.0871 66.3836 62.0871 65.0473 62.4894L53.6882 51.0894C55.2027 46.3059 51.5945 39.8236 45.0909 39.8236C38.6318 39.8236 34.9791 46.2612 36.4936 51.0894L16.1809 71.4306C11.4145 69.9553 5 73.5765 5 80.0588C5 84.9765 9.00909 89 13.9091 89C20.3682 89 23.9764 82.5624 22.5064 77.7789L42.7745 57.393C44.1109 57.7953 46.0709 57.7953 47.4073 57.393L58.7664 68.793C57.2518 73.5765 60.86 80.0588 67.3636 80.0588C73.8227 80.0588 77.4754 73.6212 75.9609 68.793L91.8191 52.9224C96.5855 54.3977 103 50.7765 103 44.2941C103 39.3765 98.9909 35.353 94.0909 35.353Z" fill="#5B565D"/>
<path d="M67.3636 39.8235L71.5509 30.5694L80.7273 26.4118L71.5509 22.2541L67.3636 13L63.2655 22.2541L54 26.4118L63.2655 30.5694L67.3636 39.8235Z" fill="#5B565D"/>
<path d="M16.1364 48.7647L18.3636 39.8235L27.2727 37.5882L18.3636 35.3529L16.1364 26.4117L13.9091 35.3529L5 37.5882L13.9091 39.8235L16.1364 48.7647Z" fill="#5B565D"/>
</svg>
