<svg width="8" height="9" viewBox="0 0 8 9" fill="none" xmlns="http://www.w3.org/2000/svg">
<path d="M3.81416 0C4.87059 0 5.82735 0.37125 6.56485 0.975L7.31831 0.26625C7.56946 0.03 8 0.195 8 0.52875V2.625C8 2.83125 7.82061 3 7.60135 3H5.37289C5.01809 3 4.83869 2.595 5.08984 2.35875L5.85127 1.6425C5.29714 1.2075 4.59153 0.9375 3.81017 0.9375C2.55044 0.9375 1.46212 1.6275 0.94387 2.625C0.836234 2.835 0.581097 2.94 0.345892 2.865C0.06285 2.77875 -0.0806646 2.475 0.0469036 2.22C0.732584 0.9075 2.15976 0 3.81416 0Z" fill="#58B57E"/>
<path d="M4.18584 9C3.12941 9 2.17265 8.62875 1.43515 8.025L0.681694 8.73375C0.430544 8.97 3.40949e-08 8.805 9.24496e-08 8.47125L4.5897e-07 6.375C4.95032e-07 6.16875 0.179394 6 0.398652 6L2.62711 6C2.98191 6 3.16131 6.405 2.91016 6.64125L2.14873 7.3575C2.70286 7.7925 3.40847 8.0625 4.18983 8.0625C5.44956 8.0625 6.53788 7.3725 7.05613 6.375C7.16377 6.165 7.4189 6.06 7.65411 6.135C7.93715 6.22125 8.08066 6.525 7.9531 6.78C7.26742 8.0925 5.84024 9 4.18584 9Z" fill="#58B57E"/>
</svg>
