<?xml version="1.0" encoding="UTF-8"?>
<svg width="1316px" height="1316px" viewBox="0 0 1316 1316" version="1.1" xmlns="http://www.w3.org/2000/svg" xmlns:xlink="http://www.w3.org/1999/xlink">
    <title>Group 4</title>
    <defs>
        <path d="M128.756063,128.705776 C107.208298,150.213953 88.3936136,173.451763 72.2723999,197.943886 L72.2723999,197.943886 C59.4123981,217.445161 48.2556204,237.804651 38.8548799,258.705476 L38.8548799,258.705476 C-34.1989083,420.762791 -4.2406496,618.270968 128.756063,751.228207 L128.756063,751.228207 C300.398797,922.923931 579.648321,922.923931 751.277852,751.228207 L751.277852,751.228207 C922.907383,579.611703 922.907383,300.348687 751.277852,128.705776 L751.277852,128.705776 C665.456485,42.8975244 552.740022,0 440.023559,0 L440.023559,0 C327.293893,0 214.57743,42.8975244 128.756063,128.705776 L128.756063,128.705776 Z M399.014149,548.333083 C294.74779,506.016504 191.986605,460.649962 95.8006577,401.802851 L95.8006577,401.802851 L95.6026084,401.684021 C83.4291776,394.303376 77.3424622,379.990998 80.1943722,366.035109 L80.1943722,366.035109 C83.9441058,347.616504 89.1065911,329.435559 95.7082347,311.624306 L95.7082347,311.624306 C109.215198,275.169992 128.703249,240.445311 154.212,208.995049 L154.212,208.995049 C162.252802,199.026557 170.887752,189.40135 180.15646,180.132633 L180.15646,180.132633 C323.425329,36.8504126 556.555772,36.8504126 699.877455,180.132633 L699.877455,180.132633 C731.736987,211.978995 756.49315,248.288072 774.185555,287.066167 L774.185555,287.066167 C786.226953,313.512378 761.708449,341.859865 733.849513,333.594599 L733.849513,333.594599 C709.89875,326.530833 685.908377,319.665116 661.772768,313.314329 L661.772768,313.314329 C606.107709,298.619055 549.729673,286.300375 493.510076,273.387547 L493.510076,273.387547 C484.003709,271.222206 480.372805,267.393248 483.237918,257.675619 L483.237918,257.675619 C488.255167,240.788597 492.744285,223.743136 497.510672,206.803301 L497.510672,206.803301 C502.422294,189.163691 493.562889,179.947787 475.461182,184.265266 L475.461182,184.265266 C462.970872,187.262416 450.612595,190.814104 438.109082,193.903676 L438.109082,193.903676 C388.966447,206.063916 339.837015,217.933683 290.879226,230.450413 L290.879226,230.450413 C273.609327,234.794299 270.88945,243.851763 282.429123,257.028657 L282.429123,257.028657 C293.70473,269.941485 305.891364,282.035709 317.708306,294.433608 L317.708306,294.433608 C351.614348,329.897674 385.28273,365.52018 419.466041,400.693773 L419.466041,400.693773 C432.19401,413.751838 440.512081,412.101425 446.466763,395.016354 L446.466763,395.016354 C452.513869,377.574794 457.280255,359.539085 461.478901,341.490173 L461.478901,341.490173 C464.277998,329.250713 470.19307,327.217404 481.006563,331.627307 L481.006563,331.627307 C585.272922,373.930683 688.047309,419.310428 784.233257,478.157539 L784.233257,478.157539 C784.312477,478.197149 784.378493,478.236759 784.44451,478.289572 L784.44451,478.289572 C796.551924,485.643811 802.717859,499.876969 799.879152,513.766842 L799.879152,513.766842 C798.373978,521.23991 796.631144,528.699775 794.637447,536.106827 L794.637447,536.106827 C787.916974,561.021455 778.54264,585.381545 766.501242,608.698575 L766.501242,608.698575 C749.587831,641.508777 727.366699,672.325281 699.877455,699.827757 L699.877455,699.827757 C672.823919,726.868117 642.509172,748.825206 610.240338,765.699025 L610.240338,765.699025 C471.698245,838.0003 296.384997,816.043211 180.15646,699.827757 L180.15646,699.827757 C148.296928,667.968192 123.527561,631.672318 105.848359,592.894224 L105.848359,592.894224 C93.7805548,566.461215 118.299059,538.100525 146.184402,546.352588 L146.184402,546.352588 C170.121961,553.416354 194.125538,560.282071 218.261147,566.659265 L218.261147,566.659265 C273.926206,581.341335 330.291039,593.646812 386.510636,606.55964 L386.510636,606.55964 C396.017003,608.751388 399.647907,612.553938 396.795997,622.245161 L396.795997,622.245161 C391.791951,639.15859 387.28963,656.190848 382.47043,673.117479 L382.47043,673.117479 C377.57201,690.783496 386.471026,700.012603 404.506716,695.695124 L404.506716,695.695124 C417.010229,692.684771 429.421319,689.146287 441.911629,686.056714 L441.911629,686.056714 C491.014654,673.870068 540.144086,662.0003 589.141485,649.509977 L589.141485,649.509977 C606.384978,645.152888 609.144465,636.12183 597.604792,622.91853 L597.604792,622.91853 C586.315981,610.005701 574.142551,597.924681 562.325609,585.473968 L562.325609,585.473968 C528.406364,550.062716 494.698371,514.374194 460.554671,479.24021 L460.554671,479.24021 C447.853108,466.155739 439.521834,467.832558 433.553948,484.917629 L433.553948,484.917629 C427.533249,502.385596 422.740456,520.421305 418.555014,538.457014 L418.555014,538.457014 C416.627334,546.854314 413.234089,550.472018 407.794335,550.472018 L407.794335,550.472018 C405.312117,550.472018 402.39419,549.71943 399.014149,548.333083 L399.014149,548.333083 Z" id="path-1"></path>
    </defs>
    <g id="Website" stroke="none" stroke-width="1" fill="none" fill-rule="evenodd">
        <g id="Group-4">
            <circle id="Oval" fill="#22BA79" cx="658" cy="658" r="658"></circle>
            <g id="Group-5" transform="translate(220.000000, 217.000000)">
                <mask id="mask-2" fill="white">
                    <use xlink:href="#path-1"></use>
                </mask>
                <g id="Clip-4"></g>
                <polygon id="Fill-3" fill="#FFFFFF" mask="url(#mask-2)" points="-35.483871 922.580645 929.677419 922.580645 929.677419 -56.7741935 -35.483871 -56.7741935"></polygon>
            </g>
        </g>
    </g>
</svg>