<?xml version="1.0" encoding="UTF-8"?>
<svg width="261px" height="77px" viewBox="0 0 261 77" version="1.1" xmlns="http://www.w3.org/2000/svg" xmlns:xlink="http://www.w3.org/1999/xlink">
    <title>Swing-lg</title>
    <defs>
        <path d="M19.6158648,21.9267335 C18.4057971,23.1363594 17.3492123,24.4432603 16.4438859,25.8207041 L16.4438859,25.8207041 C15.7217008,26.9174613 15.0951646,28.0624846 14.5672429,29.2379529 L14.5672429,29.2379529 C10.4647277,38.3521013 12.1471074,49.4600162 19.6158648,56.9375684 L19.6158648,56.9375684 C29.2548847,66.5937837 44.9368284,66.5937837 54.5751068,56.9375684 L54.5751068,56.9375684 C64.2133851,47.2858084 64.2133851,31.5799786 54.5751068,21.9267335 L54.5751068,21.9267335 C49.7555969,17.1008535 43.4257267,14.6882848 37.0958565,14.6882848 L37.0958565,14.6882848 C30.7652449,14.6882848 24.4353748,17.1008535 19.6158648,21.9267335 L19.6158648,21.9267335 Z M34.7928723,45.5266901 C28.9375385,43.1467939 23.1667315,40.595367 17.765173,37.285789 L17.765173,37.285789 L17.7540511,37.279106 C17.0704222,36.8640165 16.7286077,36.0590844 16.8887637,35.2742013 L16.8887637,35.2742013 C17.0993392,34.2383338 17.3892513,33.2158324 17.7599828,32.2141226 L17.7599828,32.2141226 C18.5184995,30.1639218 19.612899,28.2109961 21.0454056,26.4422246 L21.0454056,26.4422246 C21.4969566,25.8815938 21.9818735,25.3402695 22.5023805,24.8189943 L22.5023805,24.8189943 C30.5479962,16.7607623 43.6400095,16.7607623 51.6885911,24.8189943 L51.6885911,24.8189943 C53.4777414,26.6100425 54.8679847,28.6520751 55.8615452,30.832966 L55.8615452,30.832966 C56.5377595,32.3203083 55.1608626,33.9145788 53.5963755,33.449738 L53.5963755,33.449738 C52.2513615,33.0524698 50.9041231,32.66634 49.5487287,32.3091699 L49.5487287,32.3091699 C46.4227204,31.4827036 43.2566731,30.7898977 40.0995234,30.0636766 L40.0995234,30.0636766 C39.56567,29.9418972 39.3617677,29.7265556 39.5226651,29.1800334 L39.5226651,29.1800334 C39.8044211,28.2303026 40.0565185,27.2716611 40.3241867,26.3189601 L40.3241867,26.3189601 C40.600011,25.3269035 40.1024893,24.8085985 39.0859434,25.0514147 L39.0859434,25.0514147 C38.3845193,25.2199752 37.6905099,25.4197231 36.9883444,25.5934816 L36.9883444,25.5934816 C34.2286189,26.2773768 31.4696348,26.9449359 28.7202898,27.6488802 L28.7202898,27.6488802 C27.7504561,27.8931816 27.5977147,28.4025759 28.2457534,29.1436481 L28.2457534,29.1436481 C28.8789629,29.8698691 29.5633333,30.5500516 30.2269427,31.247313 L30.2269427,31.247313 C32.1310199,33.2418219 34.0217507,35.2452415 35.9413986,37.2234142 L35.9413986,37.2234142 C36.6561689,37.9578034 37.1232907,37.8649837 37.4576905,36.9041146 L37.4576905,36.9041146 C37.7972806,35.9231964 38.0649488,34.9088631 38.300734,33.8937872 L38.300734,33.8937872 C38.4579242,33.2054366 38.7900996,33.0910828 39.3973579,33.3390969 L39.3973579,33.3390969 C45.2526917,35.7182506 51.0242402,38.27042 56.4257986,41.579998 L56.4257986,41.579998 C56.4302473,41.5822257 56.4339547,41.5844533 56.437662,41.5874236 L56.437662,41.5874236 C57.1175836,42.001028 57.4638469,42.8015048 57.3044323,43.5826751 L57.3044323,43.5826751 C57.2199055,44.0029625 57.1220324,44.4225074 57.0100715,44.8390821 L57.0100715,44.8390821 C56.6326668,46.2402877 56.106228,47.610306 55.4300137,48.9216622 L55.4300137,48.9216622 C54.4801995,50.7669171 53.2323172,52.5000459 51.6885911,54.0467928 L51.6885911,54.0467928 C50.1693333,55.5675501 48.4669341,56.802423 46.6547983,57.7514112 L46.6547983,57.7514112 C38.8746264,61.8176551 29.0294799,60.5827823 22.5023805,54.0467928 L22.5023805,54.0467928 C20.7132302,52.255002 19.3222455,50.2137119 18.3294264,48.0328211 L18.3294264,48.0328211 C17.6517292,46.5462213 19.0286261,44.9512082 20.5945961,45.4153065 L20.5945961,45.4153065 C21.9388686,45.8125747 23.2868485,46.1987045 24.6422429,46.5573597 L24.6422429,46.5573597 C27.7682512,47.3830834 30.933557,48.0751468 34.0907067,48.8013679 L34.0907067,48.8013679 C34.6245602,48.9246324 34.8284625,49.1384889 34.6683065,49.683526 L34.6683065,49.683526 C34.387292,50.6347419 34.1344531,51.5926408 33.863819,52.5445993 L33.863819,52.5445993 C33.5887363,53.538141 34.0884824,54.0571886 35.1013209,53.8143723 L35.1013209,53.8143723 C35.8034864,53.6450693 36.5004617,53.4460639 37.2018858,53.2723055 L37.2018858,53.2723055 C39.9593869,52.5869251 42.7183709,51.9193661 45.4699404,51.2169068 L45.4699404,51.2169068 C46.4382911,50.9718629 46.5932569,50.4639537 45.9452182,49.7213964 L45.9452182,49.7213964 C45.3112673,48.9951753 44.6276383,48.3157354 43.9640289,47.6155039 L43.9640289,47.6155039 C42.0592103,45.6239651 40.1662551,43.6168327 38.2488316,41.6408877 L38.2488316,41.6408877 C37.5355441,40.9050134 37.0676809,40.9993182 36.7325396,41.9601873 L36.7325396,41.9601873 C36.3944325,42.9425907 36.1252814,43.956924 35.8902376,44.9712573 L35.8902376,44.9712573 C35.781984,45.4435237 35.591428,45.6469844 35.2859452,45.6469844 L35.2859452,45.6469844 C35.1465501,45.6469844 34.9826868,45.6046586 34.7928723,45.5266901 L34.7928723,45.5266901 Z" id="path-1"></path>
    </defs>
    <g id="Website" stroke="none" stroke-width="1" fill="none" fill-rule="evenodd">
        <g id="Swing-lg" transform="translate(0.000000, 0.526465)">
            <path d="M227.707012,12.503779 C231.555568,12.503779 234.399014,13.9321343 236.353506,16.3730288 L236.353506,13.3367613 L245,13.3367613 L245,41.618331 C245,51.6215433 237.241118,55.8485569 229.365409,55.8485569 C223.20584,55.8485569 218.053394,53.525792 215.32946,48.643328 L222.909746,44.2381074 C224.035039,46.3219131 225.75252,47.9892276 229.660832,47.9892276 C233.806826,47.9892276 236.353506,45.8460197 236.353506,41.618331 L236.353506,38.879075 C234.399014,41.3213195 231.555568,42.7489998 227.707012,42.7489998 C219.298199,42.7489998 213.137959,35.8428075 213.137959,27.6263894 C213.137959,19.4099714 219.298199,12.503779 227.707012,12.503779 Z M103.469624,12.503509 C108.266219,12.503509 112.530382,14.646717 115.017978,18.8737306 L107.437692,22.9819396 C106.608493,21.4334297 105.423444,20.3621632 103.469624,20.3621632 C101.929396,20.3621632 100.9827,20.9575363 100.9827,22.0288027 C100.9827,25.4235091 115.551082,23.1608215 115.551082,34.1758979 C115.551082,41.022688 109.629194,43.9401509 103.232614,43.9401509 C97.3100547,43.9401509 92.8095539,41.6774633 90.4998832,36.8550766 L98.1983379,32.4491811 C98.9684519,34.7118687 100.626178,35.9626921 103.232614,35.9626921 C105.365031,35.9626921 106.430568,35.3072417 106.430568,34.1164956 C106.430568,30.8412689 91.8628575,32.5686607 91.8628575,22.267762 C91.8628575,15.7780608 97.3100547,12.503509 103.469624,12.503509 Z M173.582699,13.3364913 L173.582699,43.1071687 L164.699867,43.1071687 L164.699867,13.3364913 L173.582699,13.3364913 Z M125.616345,13.3364237 L129.880507,29.2933664 L134.499848,13.3364237 L142.789821,13.3364237 L147.409833,29.2933664 L151.674667,13.3364237 L161.149688,13.3364237 L151.674667,43.1071012 L143.382681,43.1071012 L138.64517,27.2102358 L133.906988,43.1071012 L125.616345,43.1071012 L116.140652,13.3364237 L125.616345,13.3364237 Z M197.447573,12.503779 C203.428546,12.503779 208.521907,16.7901949 208.521907,24.8277311 L208.521907,43.1067636 L199.639075,43.1067636 L199.639075,26.1379568 C199.639075,22.4462389 197.328733,20.7201971 194.486629,20.7201971 C191.228919,20.7201971 188.979004,22.6244458 188.979004,26.8521344 L188.979004,43.1067636 L180.095501,43.1067636 L180.095501,13.3367613 L188.979004,13.3367613 L188.979004,16.1354196 C190.576974,13.9321343 193.53859,12.503779 197.447573,12.503779 Z M229.187484,20.7201971 C224.982406,20.7201971 222.021462,23.5181804 222.021462,27.6263894 C222.021462,31.7345984 224.982406,34.5325817 229.187484,34.5325817 C233.392562,34.5325817 236.353506,31.7345984 236.353506,27.6263894 C236.353506,23.5181804 233.392562,20.7201971 229.187484,20.7201971 Z M169.141283,0 C172.043143,0 174.470983,2.44021946 174.470983,5.35835742 C174.470983,8.27582035 172.043143,10.7167148 169.141283,10.7167148 C166.238752,10.7167148 163.810241,8.27582035 163.810241,5.35835742 C163.810241,2.44021946 166.238752,0 169.141283,0 Z" id="Combined-Shape" fill="#1B1B1B"></path>
            <path d="M97.614,65.4735353 C98.25,65.4735353 98.811,65.3685353 99.297,65.1585353 C99.783,64.9485353 100.191,64.6725353 100.521,64.3305353 C100.851,63.9885353 101.1,63.5955353 101.268,63.1515353 C101.436,62.7075353 101.52,62.2515353 101.52,61.7835353 C101.52,60.9915353 101.31,60.3195353 100.89,59.7675353 C100.47,59.2155353 99.864,58.8555353 99.072,58.6875353 L99.072,58.6515353 C99.684,58.4115353 100.155,58.0425353 100.485,57.5445353 C100.815,57.0465353 100.98,56.4555353 100.98,55.7715353 C100.98,55.1235353 100.833,54.5775353 100.539,54.1335353 C100.245,53.6895353 99.888,53.3415353 99.468,53.0895353 C99.276,52.9695353 99.045,52.8795353 98.775,52.8195353 C98.505,52.7595353 98.214,52.7145353 97.902,52.6845353 C97.59,52.6545353 97.275,52.6365353 96.957,52.6305353 C96.639,52.6245353 96.342,52.6215353 96.066,52.6215353 L91.404,52.6215353 L91.404,65.4735353 L97.614,65.4735353 Z M96.534,58.1475353 L93.114,58.1475353 L93.114,54.0615353 L96.534,54.0615353 C96.906,54.0615353 97.257,54.0825353 97.587,54.1245353 C97.917,54.1665353 98.208,54.2595353 98.46,54.4035353 C98.712,54.5475353 98.91,54.7515353 99.054,55.0155353 C99.198,55.2795353 99.27,55.6395353 99.27,56.0955353 C99.27,56.7795353 99.057,57.2925353 98.631,57.6345353 C98.205,57.9765353 97.506,58.1475353 96.534,58.1475353 Z M97.398,64.0335353 L93.114,64.0335353 L93.114,59.5875353 L97.02,59.5875353 C97.38,59.5875353 97.728,59.6205353 98.064,59.6865353 C98.4,59.7525353 98.697,59.8665353 98.955,60.0285353 C99.213,60.1905353 99.42,60.4095353 99.576,60.6855353 C99.732,60.9615353 99.81,61.3095353 99.81,61.7295353 C99.81,62.4495353 99.597,63.0135353 99.171,63.4215353 C98.745,63.8295353 98.154,64.0335353 97.398,64.0335353 Z M112.662,65.4735353 L112.662,64.0335353 L105.444,64.0335353 L105.444,59.5875353 L112.122,59.5875353 L112.122,58.1475353 L105.444,58.1475353 L105.444,54.0615353 L112.608,54.0615353 L112.608,52.6215353 L103.734,52.6215353 L103.734,65.4735353 L112.662,65.4735353 Z M119.358,65.4735353 L119.358,54.0615353 L123.642,54.0615353 L123.642,52.6215353 L113.364,52.6215353 L113.364,54.0615353 L117.648,54.0615353 L117.648,65.4735353 L119.358,65.4735353 Z M123.642,65.4735353 L125.082,61.6035353 L130.518,61.6035353 L131.922,65.4735353 L133.812,65.4735353 L128.79,52.6215353 L126.9,52.6215353 L121.896,65.4735353 L123.642,65.4735353 Z M129.978,60.1635353 L125.622,60.1635353 L127.8,54.1695353 L127.836,54.1695353 L129.978,60.1635353 Z" id="BETA" fill="#000000" fill-rule="nonzero"></path>
            <path d="M253.2,31.9735353 L253.2,28.0485353 L254.6,28.0485353 L254.6,26.9735353 L250.6,26.9735353 L250.6,28.0485353 L252.025,28.0485353 L252.025,31.9735353 L253.2,31.9735353 Z M256.325,31.9735353 L256.325,28.8735353 L257.725,31.0735353 L257.85,31.0735353 L259.25,28.8735353 L259.25,31.9735353 L260.4,31.9735353 L260.4,26.9735353 L259.25,26.9735353 L257.8,29.2735353 L256.325,26.9735353 L255.175,26.9735353 L255.175,31.9735353 L256.325,31.9735353 Z" id="™" fill="#FFFFFF" fill-rule="nonzero"></path>
            <ellipse id="Oval" fill="#22BA79" cx="36.9455138" cy="39.4735353" rx="36.9455138" ry="37"></ellipse>
            <mask id="mask-2" fill="white">
                <use xlink:href="#path-1"></use>
            </mask>
            <use id="Clip-4" fill="#FFFFFF" xlink:href="#path-1"></use>
        </g>
    </g>
</svg>